<svg width="263" height="263" viewBox="0 0 263 263" fill="none" xmlns="http://www.w3.org/2000/svg">
<path d="M225 0.25C245.508 0.25 262.5 17.2422 262.5 37.75V225.25C262.5 246.344 245.508 262.75 225 262.75H37.5C16.4062 262.75 0 246.344 0 225.25V37.75C0 17.2422 16.4062 0.25 37.5 0.25H225ZM198.633 105.719C205.078 99.2734 205.078 89.3125 198.633 82.8672C192.188 76.4219 182.227 76.4219 175.781 82.8672L112.5 146.148L86.1328 120.367C79.6875 113.922 69.7266 113.922 63.2812 120.367C56.8359 126.812 56.8359 136.773 63.2812 143.219L100.781 180.719C107.227 187.164 117.188 187.164 123.633 180.719L198.633 105.719Z" fill="#2F8D0E"/>
</svg>
