<svg width="25" height="25" viewBox="0 0 25 25" fill="none" xmlns="http://www.w3.org/2000/svg">
<path d="M16.7188 7.26562L23.8906 8.34375C24.3125 8.39062 24.6406 8.71875 24.7812 9.09375C24.9219 9.51562 24.8281 9.9375 24.5 10.2656L19.2969 15.4219L20.5156 22.6875C20.6094 23.1094 20.4219 23.5781 20.0938 23.8125C19.7188 24.0469 19.25 24.0938 18.875 23.9062L12.4531 20.4375L6.03125 23.9062C5.65625 24.0938 5.23438 24.0469 4.85938 23.8125C4.53125 23.5781 4.34375 23.1094 4.39062 22.6875L5.65625 15.4219L0.453125 10.2656C0.125 9.9375 0.03125 9.51562 0.171875 9.09375C0.3125 8.71875 0.640625 8.39062 1.0625 8.34375L8.23438 7.26562L11.4688 0.65625C11.6562 0.28125 12.0312 0 12.4531 0C12.9219 0 13.2969 0.28125 13.4844 0.65625L16.7188 7.26562ZM12.4531 18.0469C12.6406 18.0469 12.8281 18.0938 13.0156 18.1875L17.9375 20.8125L17 15.2344C16.9062 14.8594 17.0469 14.4844 17.3281 14.2031L21.3125 10.2188L15.7812 9.42188C15.4062 9.375 15.0781 9.14062 14.9375 8.8125L12.4531 3.75V18.0469Z" fill="#FFDF52"/>
</svg>
