<svg width="50" height="49" viewBox="0 0 50 49" fill="none" xmlns="http://www.w3.org/2000/svg">
<path d="M48.9062 4.46875L42.9062 43.375C42.8125 44.3125 42.25 45.1562 41.4062 45.625C40.9375 45.8125 40.4688 46 39.9062 46C39.5312 46 39.1562 45.9062 38.7812 45.7188L27.3438 40.9375L22.5625 48.0625C22.1875 48.7188 21.5312 49 20.875 49C19.8438 49 19 48.1562 19 47.125V38.125C19 37.375 19.1875 36.7188 19.5625 36.25L40 10L12.4375 34.8438L2.78125 30.8125C1.75 30.3438 1 29.4062 1 28.1875C0.90625 26.875 1.46875 25.9375 2.5 25.375L44.5 1.46875C45.4375 0.90625 46.75 0.90625 47.6875 1.5625C48.625 2.21875 49.0938 3.34375 48.9062 4.46875Z" fill="#7918DB"/>
</svg>
